<svg width="20" height="20" viewBox="0 0 20 20" fill="none" xmlns="http://www.w3.org/2000/svg">
<g clip-path="url(#clip0)">
<path d="M14.3744 20C13.7288 20 13.0886 19.8859 12.4627 19.6585C9.70506 18.6567 7.1454 17.0251 5.06033 14.9401C2.97526 12.8551 1.34369 10.2954 0.341968 7.53774C0.0200674 6.65152 -0.0749288 5.73672 0.0597141 4.81863C0.185842 3.95867 0.518953 3.12382 1.02307 2.40432C1.52942 1.68165 2.20447 1.08058 2.97522 0.666105C3.79714 0.224131 4.69425 0 5.64171 0C5.93639 0 6.19106 0.20589 6.25282 0.494003L7.2338 5.0719C7.27821 5.2792 7.2145 5.49489 7.06462 5.64481L5.3884 7.32099C6.96967 10.4648 9.5355 13.0307 12.6794 14.6119L14.3555 12.9357C14.5055 12.7858 14.7212 12.7222 14.9284 12.7665L19.5063 13.7475C19.7945 13.8093 20.0003 14.064 20.0003 14.3586C20.0003 15.3061 19.7762 16.2032 19.3342 17.0252C18.9197 17.7959 18.3187 18.471 17.596 18.9773C16.8765 19.4814 16.0417 19.8145 15.1817 19.9407C14.9122 19.9802 14.6427 20 14.3744 20ZM5.14236 1.27729C3.8926 1.41525 2.78335 2.07031 2.04674 3.12163C1.21842 4.30381 1.02526 5.75785 1.5168 7.111C3.44266 12.4126 7.58784 16.5578 12.8894 18.4836C14.2425 18.9752 15.6966 18.782 16.8788 17.9537C17.9301 17.2171 18.5852 16.1078 18.7231 14.8581L14.999 14.06L13.2485 15.8106C13.0622 15.9969 12.7792 16.0464 12.5408 15.9343C8.8226 14.1875 5.81288 11.1778 4.06607 7.45962C3.95409 7.22123 4.00354 6.93819 4.18982 6.75195L5.94037 5.0014L5.14236 1.27729Z" fill="black"/>
</g>
<defs>
<clipPath id="clip0">
<rect width="20" height="20" fill="white"/>
</clipPath>
</defs>
</svg>
