<svg width="200" height="200" viewBox="0 0 200 200" fill="none" xmlns="http://www.w3.org/2000/svg">
<path d="M28.0695 163.326L46.875 172.727V196.094C46.875 198.251 48.6242 200 50.7812 200H92.1875C94.3445 200 96.0938 198.251 96.0938 196.094V142.754C96.0938 130.786 87.116 120.861 75.2379 119.671C75.1918 119.658 58.7145 117.086 51.0699 109.441L42.2973 100.672C39.3457 97.7195 35.4223 96.0938 31.25 96.0938V64.8438C31.25 56.2281 24.2406 49.2188 15.625 49.2188C7.00938 49.2188 0 56.2281 0 64.8438V117.906C0 137.13 10.8586 154.718 28.0695 163.326ZM7.8125 64.8438C7.8125 60.5359 11.3172 57.0312 15.625 57.0312C19.9328 57.0312 23.4375 60.5359 23.4375 64.8438V98.1879C18.6734 100.943 15.625 106.079 15.625 111.719C15.625 115.891 17.2508 119.814 20.2027 122.766L40.2066 142.773C41.7313 144.299 44.2051 144.3 45.7309 142.774C47.2562 141.248 47.2566 138.775 45.7313 137.25L25.7273 117.241C24.2508 115.765 23.4375 113.804 23.4375 111.719C23.4375 108.412 25.5301 105.452 28.6453 104.351C28.6465 104.351 28.6477 104.35 28.6488 104.35H28.6492C31.343 103.395 34.5387 103.961 36.7738 106.196L45.5465 114.966C54.6035 124.022 74.3914 127.43 74.4309 127.441C82.327 128.233 88.2812 134.816 88.2812 142.754V192.188H54.6875V170.312C54.6875 168.833 53.8512 167.48 52.5281 166.819L31.5637 156.338C16.9137 149.011 7.8125 134.285 7.8125 117.906V64.8438Z" fill="black"/>
<path d="M53.125 96.0938H146.875C149.032 96.0938 150.781 94.3449 150.781 92.1875V3.90625C150.781 1.74883 149.032 0 146.875 0H53.125C50.968 0 49.2188 1.74883 49.2188 3.90625V92.1875C49.2188 94.3449 50.968 96.0938 53.125 96.0938ZM88.2812 7.8125H111.719V28.8645L101.572 23.843C100.471 23.2973 99.1754 23.3031 98.0785 23.8574L88.2812 28.8066V7.8125ZM57.0312 7.8125H80.4688V35.1562C80.4688 36.5129 81.1727 37.7727 82.3285 38.4836C83.4836 39.1941 84.9258 39.2547 86.1363 38.643L99.8578 31.7113L113.893 38.6574C115.082 39.2465 116.518 39.2 117.686 38.475C118.833 37.7621 119.531 36.507 119.531 35.1562V7.8125H142.969V88.2812H57.0312V7.8125Z" fill="black"/>
<path d="M131.25 68.75H107.812C105.655 68.75 103.906 70.4988 103.906 72.6562C103.906 74.8137 105.655 76.5625 107.812 76.5625H131.25C133.407 76.5625 135.156 74.8137 135.156 72.6562C135.156 70.4988 133.407 68.75 131.25 68.75Z" fill="black"/>
<path d="M179.297 157.812C181.454 157.812 183.203 156.064 183.203 153.906C183.203 151.749 181.454 150 179.297 150C177.14 150 175.391 151.749 175.391 153.906C175.391 156.064 177.14 157.812 179.297 157.812Z" fill="black"/>
<path d="M184.375 49.2188C175.759 49.2188 168.75 56.2281 168.75 64.8438V96.0938C164.578 96.0938 160.654 97.7195 157.704 100.671L148.929 109.441C144.125 114.246 131.953 118.948 125.051 119.639L124.79 119.668C112.884 120.861 103.906 130.786 103.906 142.754V196.094C103.906 198.251 105.655 200 107.812 200H149.219C151.376 200 153.125 198.251 153.125 196.094V172.727L165.91 166.336C167.839 165.371 168.622 163.025 167.657 161.095C166.693 159.166 164.347 158.383 162.417 159.347L147.472 166.818C146.149 167.48 145.312 168.833 145.312 170.312V192.188H111.719V142.754C111.719 134.816 117.673 128.233 125.597 127.438L125.859 127.41C134.332 126.561 148.361 121.058 154.453 114.966L163.227 106.196C165.463 103.96 168.662 103.396 171.351 104.35H171.351C171.352 104.35 171.354 104.351 171.355 104.351C176.734 106.252 178.354 113.16 174.273 117.242L154.269 137.25C152.744 138.776 152.744 141.249 154.27 142.774C155.795 144.299 158.268 144.3 159.794 142.774L179.798 122.766C187.019 115.543 185.515 103.364 176.563 98.1879V64.8438C176.563 60.5359 180.068 57.0312 184.375 57.0312C188.683 57.0312 192.188 60.5359 192.188 64.8438V117.906C192.188 125.053 190.384 132.148 186.972 138.425C185.941 140.32 186.642 142.692 188.538 143.723C190.433 144.752 192.805 144.052 193.836 142.157C197.868 134.739 200 126.353 200 117.906V64.8438C200 56.2281 192.991 49.2188 184.375 49.2188Z" fill="black"/>
</svg>
