<svg width="200" height="200" viewBox="0 0 200 200" fill="none" xmlns="http://www.w3.org/2000/svg">
<g clip-path="url(#clip0)">
<path d="M198.745 75.186L193.535 66.1625C192.457 64.2946 190.069 63.6544 188.2 64.7328C186.331 65.8113 185.691 68.2003 186.77 70.0686L191.98 79.0922C192.255 79.5679 192.193 80.021 192.132 80.2488C192.071 80.4765 191.898 80.8999 191.422 81.1745L177.646 89.1282C176.917 89.5477 175.983 89.2973 175.563 88.57L147.849 40.5692C147.429 39.8411 147.679 38.9067 148.407 38.486L162.183 30.5327C162.911 30.1132 163.846 30.3624 164.266 31.0905L169.192 39.6235C170.271 41.4922 172.66 42.1324 174.528 41.0531C176.396 39.9746 177.037 37.5857 175.958 35.7174L171.031 27.1844C168.458 22.7264 162.737 21.1924 158.277 23.7669L144.501 31.7206C142.408 32.9292 140.96 34.8311 140.278 36.97H101.225C95.7419 36.97 90.587 39.1051 86.7094 42.9824L82.708 46.9838C79.1995 46.1475 75.6051 45.7174 71.9903 45.7174H59.8642C59.2583 43.3773 57.7533 41.2711 55.4994 39.9696L41.7233 32.0159C39.5632 30.7687 37.0461 30.4378 34.638 31.0831C32.2291 31.7284 30.2155 33.2737 28.9686 35.4334L1.25505 83.4346C0.00821481 85.5943 -0.323415 88.1106 0.321877 90.5199C0.967169 92.9292 2.51243 94.9425 4.67252 96.1893L18.4487 104.143C19.9154 104.99 21.5181 105.392 23.1012 105.392C23.6782 105.392 24.252 105.336 24.816 105.232L36.0915 116.507C35.9188 117.394 35.8294 118.303 35.8294 119.226C35.8294 122.979 37.291 126.509 39.9452 129.162C42.4866 131.703 45.7669 133.064 49.1008 133.248C49.0496 133.738 49.0219 134.232 49.0219 134.731C49.0219 138.485 50.4836 142.014 53.1378 144.668C55.792 147.322 59.3208 148.784 63.0742 148.784C63.1762 148.784 63.2769 148.779 63.3785 148.776C63.3762 148.878 63.3711 148.979 63.3711 149.081C63.3711 152.834 64.8327 156.363 67.487 159.017C70.1412 161.671 73.67 163.133 77.4234 163.133C77.5253 163.133 77.6261 163.128 77.7277 163.125C77.7253 163.227 77.7202 163.328 77.7202 163.43C77.7202 167.183 79.1819 170.712 81.8361 173.366C84.4903 176.02 88.0191 177.482 91.7725 177.482C95.5259 177.482 99.0551 176.02 101.709 173.366L107.266 167.81C108.895 166.18 110.036 164.246 110.696 162.19C113.165 164.012 116.098 164.923 119.033 164.923C122.631 164.922 126.23 163.553 128.969 160.813C130.608 159.174 131.791 157.201 132.457 155.049C134.718 156.527 137.36 157.323 140.125 157.323C143.878 157.323 147.407 155.861 150.061 153.207C152.033 151.234 153.346 148.779 153.891 146.107C155.301 146.574 156.792 146.821 158.321 146.821C162.075 146.821 165.604 145.359 168.258 142.704C173.737 137.225 173.737 128.31 168.258 122.831L159.141 113.714L175.782 97.0729C176.152 97.117 176.524 97.142 176.898 97.142C178.481 97.142 180.084 96.7397 181.551 95.8932L195.327 87.9399C197.486 86.6927 199.032 84.6795 199.677 82.2702C200.323 79.8609 199.992 77.3457 198.745 75.186ZM8.57826 89.4239C8.10249 89.1493 7.92906 88.7262 7.86812 88.4981C7.80719 88.2704 7.74586 87.8173 8.02085 87.3411L35.7344 39.3395C36.009 38.8637 36.4325 38.6903 36.6602 38.6294C36.7575 38.6036 36.8957 38.5774 37.059 38.5774C37.2789 38.5774 37.5442 38.6247 37.8168 38.7817L51.5929 46.7354C52.3206 47.1557 52.5714 48.09 52.1511 48.8181L24.4375 96.8194C24.0168 97.5471 23.0833 97.7978 22.3548 97.3775L8.57826 89.4239ZM43.6416 119.226C43.6416 117.559 44.2908 115.992 45.4697 114.813L48.8407 111.442C50.057 110.225 51.655 109.617 53.2534 109.617C54.851 109.617 56.4494 110.226 57.6658 111.442C58.8447 112.621 59.4939 114.188 59.4939 115.854C59.4939 117.521 58.8447 119.088 57.6658 120.267L54.2948 123.638C51.8617 126.071 47.9028 126.071 45.4697 123.638C44.2908 122.46 43.6416 120.892 43.6416 119.226ZM63.0746 140.971C61.4075 140.971 59.8407 140.322 58.6622 139.144C57.4834 137.965 56.8342 136.398 56.8342 134.731C56.8342 133.065 57.4834 131.498 58.6622 130.319L64.2187 124.763C65.4351 123.546 67.0331 122.938 68.6311 122.938C70.2295 122.938 71.8275 123.546 73.0438 124.763C74.2227 125.941 74.8719 127.508 74.8719 129.175C74.8719 130.842 74.2227 132.409 73.0438 133.587L67.4874 139.144C66.3085 140.323 64.7413 140.971 63.0746 140.971ZM77.4238 155.321C75.7566 155.321 74.1899 154.672 73.0114 153.493C71.8325 152.315 71.1833 150.748 71.1833 149.081C71.1833 147.414 71.8325 145.847 73.0114 144.668L78.5679 139.112C79.7842 137.895 81.3822 137.287 82.9802 137.287C84.5782 137.287 86.1766 137.895 87.393 139.112C88.5719 140.291 89.221 141.858 89.221 143.525C89.221 145.191 88.5719 146.758 87.393 147.937L81.8365 153.493C80.658 154.672 79.0909 155.321 77.4238 155.321ZM101.742 162.286L96.1853 167.843C95.0068 169.021 93.4401 169.671 91.7729 169.671C90.1058 169.671 88.539 169.021 87.3606 167.843C86.1817 166.664 85.5325 165.097 85.5325 163.431C85.5325 161.763 86.1817 160.197 87.3606 159.018L92.917 153.461C94.1334 152.245 95.7314 151.636 97.3298 151.636C98.9274 151.636 100.526 152.245 101.742 153.461C104.175 155.894 104.175 159.853 101.742 162.286ZM162.735 137.181C161.556 138.36 159.989 139.009 158.322 139.009C156.655 139.009 155.089 138.36 153.91 137.181L116.626 99.897C115.1 98.372 112.628 98.3716 111.101 99.897C109.576 101.422 109.576 103.896 111.101 105.421L144.538 138.858C145.717 140.036 146.366 141.603 146.366 143.27C146.366 144.937 145.717 146.504 144.538 147.683C143.359 148.861 141.792 149.511 140.125 149.511C138.458 149.511 136.891 148.861 135.713 147.683L95.5341 107.504C94.0088 105.979 91.5354 105.979 90.0097 107.504C88.4844 109.03 88.4844 111.503 90.0097 113.028L123.446 146.465C124.625 147.644 125.274 149.211 125.274 150.877C125.274 152.544 124.625 154.111 123.446 155.29C121.013 157.723 117.055 157.724 114.621 155.29L107.267 147.936C107.257 147.926 107.246 147.917 107.236 147.908C104.423 145.111 100.712 143.756 97.0259 143.835C97.0282 143.732 97.0333 143.629 97.0333 143.525C97.0333 139.771 95.5716 136.242 92.9174 133.588C90.1007 130.771 86.3758 129.407 82.6763 129.486C82.6787 129.382 82.6838 129.279 82.6838 129.175C82.6838 125.422 81.2221 121.893 78.5679 119.239C75.4875 116.158 71.3208 114.81 67.2897 115.193C67.1284 111.688 65.6874 108.416 63.1898 105.918C57.7107 100.439 48.7954 100.44 43.3162 105.918L39.9452 109.289C39.9413 109.293 39.9374 109.297 39.9335 109.301L31.2596 100.627L58.4513 53.5297H71.9899C73.3165 53.5297 74.6395 53.6 75.9551 53.7367L71.49 58.2018C68.8357 60.856 67.3741 64.3852 67.3741 68.1386C67.3741 71.8924 68.8357 75.4212 71.49 78.0754C74.2297 80.8148 77.8284 82.1847 81.4264 82.1847C85.0251 82.1847 88.6238 80.8152 91.3632 78.0754L101.908 67.5304L162.734 128.356C165.167 130.789 165.168 134.748 162.735 137.181ZM125.205 79.7785C130.89 75.6645 134.374 69.0257 134.374 61.813C134.374 59.6557 132.625 57.9069 130.468 57.9069C128.311 57.9069 126.562 59.6557 126.562 61.813C126.562 66.9156 123.866 71.5697 119.566 74.1396L104.689 59.2619C103.163 57.7366 100.694 57.6967 99.168 59.2221L85.8391 72.551C83.406 74.9841 79.4471 74.9837 77.014 72.551C75.8351 71.3725 75.1859 69.8053 75.1859 68.1386C75.1859 66.4719 75.8351 64.9047 77.014 63.7259L92.2335 48.5064C94.6349 46.1049 97.8282 44.7823 101.225 44.7823H141.261L168.797 92.4769C168.862 92.5898 168.933 92.6972 169.003 92.8062L153.618 108.191L125.205 79.7785Z" fill="black"/>
<path d="M181.365 56.801C182.392 56.801 183.396 56.3831 184.126 55.6565C184.853 54.926 185.271 53.9221 185.271 52.8948C185.271 51.8635 184.853 50.8596 184.126 50.1291C183.396 49.4026 182.392 48.9885 181.365 48.9885C180.333 48.9885 179.33 49.4026 178.603 50.1291C177.873 50.8596 177.458 51.8635 177.458 52.8948C177.458 53.9221 177.873 54.926 178.603 55.6565C179.33 56.3834 180.333 56.801 181.365 56.801Z" fill="black"/>
</g>
<defs>
<clipPath id="clip0">
<rect width="200" height="200" fill="white"/>
</clipPath>
</defs>
</svg>
