<svg width="200" height="200" viewBox="0 0 200 200" fill="none" xmlns="http://www.w3.org/2000/svg">
<g clip-path="url(#clip0)">
<path d="M183.527 87.2161V29.2052C183.527 27.6283 182.511 26.2299 181.011 25.7432L102.348 0.179531C101.552 -0.0806211 100.729 -0.0489809 99.9996 0.215859C99.2641 -0.0466372 98.443 -0.0782774 97.6465 0.179531L18.9864 25.7432C17.4861 26.2295 16.4705 27.6256 16.4705 29.2052L16.4752 87.0782C16.4435 87.9242 14.233 172.074 98.1176 199.814C98.4864 199.939 98.8754 200 99.2625 200H100.74C101.127 200 101.516 199.939 101.885 199.814C185.767 172.074 183.557 87.9219 183.527 87.2161ZM100.149 192.718H99.8504C21.7989 166.555 23.6317 90.5785 23.7497 87.2161V31.8482L99.8938 7.10325C99.9301 7.09192 99.9641 7.07825 100 7.06692C100.032 7.07825 100.068 7.09192 100.102 7.10325L176.248 31.8501L176.253 87.3563C176.282 88.1438 178.343 166.494 100.149 192.718Z" fill="black"/>
<path d="M160.804 39.5507L101.773 19.6862C101.262 19.5167 100.732 19.4757 100.241 19.5167C99.7478 19.4784 99.2252 19.5167 98.7092 19.6862L39.6847 39.5503C38.207 40.0503 37.207 41.4374 37.207 43.0011L37.2117 88.2027C37.232 88.8519 40.1828 153.513 98.9268 176.269C99.3498 176.432 99.7978 176.513 100.241 176.513C100.685 176.513 101.133 176.432 101.556 176.269C160.302 153.513 163.257 88.8523 163.282 88.0738V43.0011C163.28 41.4378 162.282 40.0507 160.804 39.5507ZM100.241 168.965C47.3034 147.517 44.5065 88.5445 44.4862 88.0761V45.6167L100.241 26.8521L156.003 45.6167L156.005 87.9449C155.981 88.5422 153.179 147.517 100.241 168.965Z" fill="black"/>
<path d="M141.909 73.1172C140.361 71.823 138.065 72.0402 136.782 73.5789L94.6575 124.033L67.485 95.4977C66.0889 94.036 63.7924 93.9907 62.3397 95.3688C60.8827 96.7559 60.8261 99.0614 62.2108 100.514L92.1982 132.006C92.8884 132.728 93.8408 133.137 94.8364 133.137C94.8747 133.137 94.9134 133.137 94.954 133.133C95.9927 133.101 96.9657 132.624 97.6309 131.829L142.371 78.2417C143.658 76.6991 143.452 74.4046 141.909 73.1172Z" fill="black"/>
</g>
<defs>
<clipPath id="clip0">
<rect width="200" height="200" fill="white"/>
</clipPath>
</defs>
</svg>
